<svg width="13" height="13" viewBox="0 0 13 13" fill="none" xmlns="http://www.w3.org/2000/svg">
<path d="M7.93999 5.99999L12.8 1.13999C12.9092 1.01246 12.9663 0.848406 12.9598 0.680622C12.9533 0.512838 12.8838 0.353679 12.765 0.234949C12.6463 0.116219 12.4871 0.0466642 12.3194 0.0401834C12.1516 0.0337026 11.9875 0.0907736 11.86 0.199991L6.99999 5.05999L2.13999 0.193324C2.01246 0.0841068 1.84841 0.0270364 1.68062 0.0335172C1.51284 0.039998 1.35368 0.109553 1.23495 0.228282C1.11622 0.347012 1.04667 0.506171 1.04018 0.673955C1.0337 0.841739 1.09078 1.00579 1.19999 1.13332L6.05999 5.99999L1.19333 10.86C1.12354 10.9198 1.06686 10.9933 1.02684 11.076C0.986827 11.1587 0.96434 11.2488 0.960793 11.3406C0.957247 11.4324 0.972718 11.524 1.00623 11.6095C1.03975 11.6951 1.09059 11.7728 1.15556 11.8378C1.22053 11.9027 1.29823 11.9536 1.38378 11.9871C1.46933 12.0206 1.56088 12.0361 1.65269 12.0325C1.74451 12.029 1.8346 12.0065 1.91731 11.9665C2.00002 11.9265 2.07356 11.8698 2.13333 11.8L6.99999 6.93999L11.86 11.8C11.9875 11.9092 12.1516 11.9663 12.3194 11.9598C12.4871 11.9533 12.6463 11.8838 12.765 11.765C12.8838 11.6463 12.9533 11.4871 12.9598 11.3194C12.9663 11.1516 12.9092 10.9875 12.8 10.86L7.93999 5.99999Z" fill="#B4B4B4"/>
</svg>
